# xmcd
#
# Track frame offsets: 
#        150
#        17437
#        32971
#        44683
#        56820
#        69317
#        85047
#        99279
#        113316
#        126460
#        136937
#        150827
#        163844
#        176396
#        189410
#        200384
#        212329
#        226026
#        234721
#        248220
#        261065
#        271709
#        288249
#        301054
#        315311
#
# Disc length: 4400 seconds
#
# Revision: 5
# Processed by: cddbd v1.5.2PL0 Copyright (c) Steve Scherf et al.
# Submitted via: ExactAudioCopyFreeDBPlugin 1.0
#
DISCID=3c112e19
DTITLE=Various  -  106 - Super Oldies Collection
DYEAR=1900
DGENRE=Country
TTITLE0=Shirley and Company - Shame, Shame, Shame
TTITLE1=The Rubettes - Sugar Baby Love
TTITLE2=Chris Andrews - Yesterday Man
TTITLE3=The Troggs - Wild Thing
TTITLE4=Jackie Wilson - Reet Petite
TTITLE5=Harold Melvin and The Blue Notes - If You Don't Know Me By Now
TTITLE6=Van Morrison - Brown Eyed Girl
TTITLE7=KC and The Sunshine Band - That's The Way I Like It
TTITLE8=The Turtles - Happy Together
TTITLE9=Louis Armstrong - What A Wonderful World
TTITLE10=The Brotherhood Of Man - Save Your Kisses For Me
TTITLE11=The Bee Gees - Spicks and Specks
TTITLE12=Christie - Yellow River
TTITLE13=The Foundations - Build Me Up, Buttercup
TTITLE14=Gerry and The Pacemakers - Ferry 'Cross The Mersey
TTITLE15=Desmond Dekker and The Aces - The Israelites
TTITLE16=Ben E King - Stand By Me
TTITLE17=Jerry Lee Lewis - Great Balls of Fire
TTITLE18=Gene Pitney - Twenty Four Hours From Tulsa
TTITLE19=The Shangri-las - Leader Of The Pack
TTITLE20=Del Shannon - Runaway
TTITLE21=Nina Simone - My Baby Just Cares For Me
TTITLE22=Percy Sledge - When A Man Loves A Woman
TTITLE23=The Small Faces - Lazy Sunday
TTITLE24=Chris Farlowe - Out Of Time
EXTD=098
EXTT0=
EXTT1=
EXTT2=
EXTT3=
EXTT4=
EXTT5=
EXTT6=
EXTT7=
EXTT8=
EXTT9=
EXTT10=
EXTT11=
EXTT12=
EXTT13=
EXTT14=
EXTT15=
EXTT16=
EXTT17=
EXTT18=
EXTT19=
EXTT20=
EXTT21=
EXTT22=
EXTT23=
EXTT24=
PLAYORDER=
